<mxfile host="app.diagrams.net" modified="2020-11-26T22:48:42.612Z" agent="5.0 (Windows NT 10.0; Win64; x64) AppleWebKit/537.36 (KHTML, like Gecko) Chrome/87.0.4280.66 Safari/537.36 Edg/87.0.664.41" etag="n4dcgJA3KazZr6U7iSOK" version="13.10.0" type="github" pages="2">
  <diagram id="VNQfLJ2xw3_7SBv2GgVV" name="Page-1">
    <mxGraphModel dx="1635" dy="902" grid="1" gridSize="10" guides="1" tooltips="1" connect="1" arrows="1" fold="1" page="1" pageScale="1" pageWidth="850" pageHeight="1100" math="0" shadow="0">
      <root>
        <mxCell id="0" />
        <mxCell id="1" parent="0" />
        <mxCell id="8THRyHI7pQbLF0PY5Hk_-6" value="Loop" style="shape=umlFrame;whiteSpace=wrap;html=1;" parent="1" vertex="1">
          <mxGeometry x="45" y="350" width="430" height="120" as="geometry" />
        </mxCell>
        <mxCell id="TGZ62O_lUemDzMzQbtyd-3" value="Cient" style="shape=umlActor;verticalLabelPosition=bottom;verticalAlign=top;html=1;" parent="1" vertex="1">
          <mxGeometry x="110" y="100" width="30" height="60" as="geometry" />
        </mxCell>
        <mxCell id="TGZ62O_lUemDzMzQbtyd-7" value="" style="endArrow=none;dashed=1;html=1;dashPattern=1 3;strokeWidth=2;" parent="1" source="TGZ62O_lUemDzMzQbtyd-22" edge="1">
          <mxGeometry x="110" y="60" width="50" height="50" as="geometry">
            <mxPoint x="480" y="400" as="sourcePoint" />
            <mxPoint x="640" y="150" as="targetPoint" />
          </mxGeometry>
        </mxCell>
        <mxCell id="TGZ62O_lUemDzMzQbtyd-8" value="" style="endArrow=none;dashed=1;html=1;" parent="1" edge="1">
          <mxGeometry x="110" y="60" width="50" height="50" as="geometry">
            <mxPoint x="124.5" y="180" as="sourcePoint" />
            <mxPoint x="124.5" y="195" as="targetPoint" />
          </mxGeometry>
        </mxCell>
        <mxCell id="TGZ62O_lUemDzMzQbtyd-15" value="Employé" style="shape=umlActor;verticalLabelPosition=bottom;verticalAlign=top;html=1;outlineConnect=0;" parent="1" vertex="1">
          <mxGeometry x="630" y="60" width="30" height="60" as="geometry" />
        </mxCell>
        <mxCell id="TGZ62O_lUemDzMzQbtyd-20" value="" style="html=1;points=[];perimeter=orthogonalPerimeter;" parent="1" vertex="1">
          <mxGeometry x="400" y="200" width="10" height="400" as="geometry" />
        </mxCell>
        <mxCell id="TGZ62O_lUemDzMzQbtyd-21" value="" style="endArrow=none;dashed=1;html=1;" parent="1" target="TGZ62O_lUemDzMzQbtyd-20" edge="1">
          <mxGeometry x="110" y="60" width="50" height="50" as="geometry">
            <mxPoint x="400" y="610" as="sourcePoint" />
            <mxPoint x="320" y="190" as="targetPoint" />
            <Array as="points">
              <mxPoint x="400" y="430" />
            </Array>
          </mxGeometry>
        </mxCell>
        <mxCell id="TGZ62O_lUemDzMzQbtyd-22" value="" style="html=1;points=[];perimeter=orthogonalPerimeter;" parent="1" vertex="1">
          <mxGeometry x="640" y="200" width="10" height="60" as="geometry" />
        </mxCell>
        <mxCell id="TGZ62O_lUemDzMzQbtyd-23" value="" style="endArrow=none;dashed=1;html=1;dashPattern=1 3;strokeWidth=2;" parent="1" target="TGZ62O_lUemDzMzQbtyd-22" edge="1">
          <mxGeometry x="110" y="60" width="50" height="50" as="geometry">
            <mxPoint x="645" y="580" as="sourcePoint" />
            <mxPoint x="480" y="160" as="targetPoint" />
          </mxGeometry>
        </mxCell>
        <mxCell id="TGZ62O_lUemDzMzQbtyd-24" value=": Système de&amp;nbsp;&lt;span lang=&quot;FR&quot; style=&quot;font-size: 11.0pt ; line-height: 107% ; font-family: &amp;#34;calibri&amp;#34; , sans-serif&quot;&gt;Gestion&lt;br/&gt;des pompes&amp;nbsp;&lt;/span&gt;" style="html=1;" parent="1" vertex="1">
          <mxGeometry x="340" y="100" width="130" height="50" as="geometry" />
        </mxCell>
        <mxCell id="TGZ62O_lUemDzMzQbtyd-25" value="" style="endArrow=classic;html=1;" parent="1" edge="1">
          <mxGeometry x="350" y="29" width="50" height="50" as="geometry">
            <mxPoint x="639" y="210" as="sourcePoint" />
            <mxPoint x="410" y="210" as="targetPoint" />
          </mxGeometry>
        </mxCell>
        <mxCell id="TGZ62O_lUemDzMzQbtyd-6" value="" style="endArrow=none;dashed=1;html=1;entryX=0.5;entryY=1;entryDx=0;entryDy=0;" parent="1" source="TGZ62O_lUemDzMzQbtyd-20" target="TGZ62O_lUemDzMzQbtyd-24" edge="1">
          <mxGeometry x="110" y="60" width="50" height="50" as="geometry">
            <mxPoint x="320" y="400" as="sourcePoint" />
            <mxPoint x="320" y="190" as="targetPoint" />
          </mxGeometry>
        </mxCell>
        <mxCell id="TGZ62O_lUemDzMzQbtyd-29" value="Emettre un signal&amp;nbsp;" style="text;html=1;strokeColor=none;fillColor=none;align=center;verticalAlign=middle;whiteSpace=wrap;rounded=0;" parent="1" vertex="1">
          <mxGeometry x="210" y="210" width="110" height="20" as="geometry" />
        </mxCell>
        <mxCell id="TGZ62O_lUemDzMzQbtyd-30" value="DécrocherPistolet" style="text;html=1;strokeColor=none;fillColor=none;align=center;verticalAlign=middle;whiteSpace=wrap;rounded=0;" parent="1" vertex="1">
          <mxGeometry x="250" y="300" width="40" height="20" as="geometry" />
        </mxCell>
        <mxCell id="TGZ62O_lUemDzMzQbtyd-31" value="Afficher&amp;nbsp; quantite petrole" style="text;html=1;strokeColor=none;fillColor=none;align=center;verticalAlign=middle;whiteSpace=wrap;rounded=0;" parent="1" vertex="1">
          <mxGeometry x="190" y="400" width="140" height="20" as="geometry" />
        </mxCell>
        <mxCell id="TGZ62O_lUemDzMzQbtyd-32" value="" style="endArrow=classic;html=1;exitX=-0.344;exitY=0.11;exitDx=0;exitDy=0;exitPerimeter=0;" parent="1" source="TGZ62O_lUemDzMzQbtyd-20" edge="1">
          <mxGeometry x="-120" y="20" width="50" height="50" as="geometry">
            <mxPoint x="400" y="280" as="sourcePoint" />
            <mxPoint x="120" y="244" as="targetPoint" />
          </mxGeometry>
        </mxCell>
        <mxCell id="TGZ62O_lUemDzMzQbtyd-36" value="Activer Pompe" style="text;html=1;strokeColor=none;fillColor=none;align=center;verticalAlign=middle;whiteSpace=wrap;rounded=0;" parent="1" vertex="1">
          <mxGeometry x="470" y="190" width="110" height="20" as="geometry" />
        </mxCell>
        <mxCell id="TGZ62O_lUemDzMzQbtyd-37" value="" style="endArrow=classic;html=1;exitX=1.101;exitY=0.364;exitDx=0;exitDy=0;exitPerimeter=0;" parent="1" source="iDVEAhG6msUU5WQUJ1Fn-4" edge="1">
          <mxGeometry x="110" y="60" width="50" height="50" as="geometry">
            <mxPoint x="120" y="398" as="sourcePoint" />
            <mxPoint x="400" y="375" as="targetPoint" />
          </mxGeometry>
        </mxCell>
        <mxCell id="TGZ62O_lUemDzMzQbtyd-38" value="Presser Gâchette" style="text;html=1;strokeColor=none;fillColor=none;align=center;verticalAlign=middle;whiteSpace=wrap;rounded=0;" parent="1" vertex="1">
          <mxGeometry x="195" y="350" width="110" height="20" as="geometry" />
        </mxCell>
        <mxCell id="TGZ62O_lUemDzMzQbtyd-40" value="" style="endArrow=classic;html=1;" parent="1" edge="1">
          <mxGeometry x="110" y="50" width="50" height="50" as="geometry">
            <mxPoint x="120" y="470" as="sourcePoint" />
            <mxPoint x="400" y="470" as="targetPoint" />
          </mxGeometry>
        </mxCell>
        <mxCell id="TGZ62O_lUemDzMzQbtyd-41" value="RéclacherGachette" style="text;html=1;strokeColor=none;fillColor=none;align=center;verticalAlign=middle;whiteSpace=wrap;rounded=0;" parent="1" vertex="1">
          <mxGeometry x="240" y="440" width="40" height="20" as="geometry" />
        </mxCell>
        <mxCell id="TGZ62O_lUemDzMzQbtyd-42" value="" style="endArrow=classic;html=1;dashed=1;entryX=1.212;entryY=0.493;entryDx=0;entryDy=0;entryPerimeter=0;exitX=0.212;exitY=0.556;exitDx=0;exitDy=0;exitPerimeter=0;" parent="1" source="TGZ62O_lUemDzMzQbtyd-20" target="iDVEAhG6msUU5WQUJ1Fn-4" edge="1">
          <mxGeometry x="94.5" y="70" width="50" height="50" as="geometry">
            <mxPoint x="400" y="450" as="sourcePoint" />
            <mxPoint x="130" y="450" as="targetPoint" />
          </mxGeometry>
        </mxCell>
        <mxCell id="TGZ62O_lUemDzMzQbtyd-45" value="" style="endArrow=classic;html=1;dashed=1;" parent="1" edge="1">
          <mxGeometry x="94.75" y="60" width="50" height="50" as="geometry">
            <mxPoint x="400" y="520" as="sourcePoint" />
            <mxPoint x="118.75" y="520" as="targetPoint" />
          </mxGeometry>
        </mxCell>
        <mxCell id="TGZ62O_lUemDzMzQbtyd-46" value="TerminerDistribution" style="text;html=1;strokeColor=none;fillColor=none;align=center;verticalAlign=middle;whiteSpace=wrap;rounded=0;" parent="1" vertex="1">
          <mxGeometry x="230" y="500" width="40" height="20" as="geometry" />
        </mxCell>
        <mxCell id="TGZ62O_lUemDzMzQbtyd-47" value="" style="endArrow=classic;html=1;" parent="1" edge="1">
          <mxGeometry x="110" y="60" width="50" height="50" as="geometry">
            <mxPoint x="120" y="560" as="sourcePoint" />
            <mxPoint x="400" y="560" as="targetPoint" />
          </mxGeometry>
        </mxCell>
        <mxCell id="TGZ62O_lUemDzMzQbtyd-51" value="" style="endArrow=classic;html=1;dashed=1;entryX=0.99;entryY=0.995;entryDx=0;entryDy=0;entryPerimeter=0;" parent="1" edge="1">
          <mxGeometry width="50" height="50" relative="1" as="geometry">
            <mxPoint x="390.1" y="602.03" as="sourcePoint" />
            <mxPoint x="120.00000000000009" y="600.0049999999999" as="targetPoint" />
          </mxGeometry>
        </mxCell>
        <mxCell id="TGZ62O_lUemDzMzQbtyd-52" value="DésactiverPompe" style="text;html=1;strokeColor=none;fillColor=none;align=center;verticalAlign=middle;whiteSpace=wrap;rounded=0;" parent="1" vertex="1">
          <mxGeometry x="250" y="580" width="40" height="20" as="geometry" />
        </mxCell>
        <mxCell id="TGZ62O_lUemDzMzQbtyd-53" value="RacrocherPistolet" style="text;html=1;strokeColor=none;fillColor=none;align=center;verticalAlign=middle;whiteSpace=wrap;rounded=0;" parent="1" vertex="1">
          <mxGeometry x="210" y="540" width="80" height="20" as="geometry" />
        </mxCell>
        <mxCell id="iDVEAhG6msUU5WQUJ1Fn-1" value="" style="endArrow=classic;html=1;entryX=0.212;entryY=0.293;entryDx=0;entryDy=0;entryPerimeter=0;" parent="1" target="TGZ62O_lUemDzMzQbtyd-20" edge="1">
          <mxGeometry width="50" height="50" relative="1" as="geometry">
            <mxPoint x="120" y="317" as="sourcePoint" />
            <mxPoint x="380" y="300" as="targetPoint" />
          </mxGeometry>
        </mxCell>
        <mxCell id="iDVEAhG6msUU5WQUJ1Fn-3" value="" style="endArrow=none;dashed=1;html=1;" parent="1" source="iDVEAhG6msUU5WQUJ1Fn-4" edge="1">
          <mxGeometry width="50" height="50" relative="1" as="geometry">
            <mxPoint x="120" y="610" as="sourcePoint" />
            <mxPoint x="120" y="190" as="targetPoint" />
          </mxGeometry>
        </mxCell>
        <mxCell id="iDVEAhG6msUU5WQUJ1Fn-4" value="" style="html=1;points=[];perimeter=orthogonalPerimeter;" parent="1" vertex="1">
          <mxGeometry x="110" y="240" width="10" height="370" as="geometry" />
        </mxCell>
        <mxCell id="iDVEAhG6msUU5WQUJ1Fn-5" value="" style="endArrow=none;dashed=1;html=1;" parent="1" target="iDVEAhG6msUU5WQUJ1Fn-4" edge="1">
          <mxGeometry width="50" height="50" relative="1" as="geometry">
            <mxPoint x="120" y="610" as="sourcePoint" />
            <mxPoint x="120" y="190" as="targetPoint" />
          </mxGeometry>
        </mxCell>
      </root>
    </mxGraphModel>
  </diagram>
  <diagram id="kg7nmyU0j4GmO5tbOBLy" name="Page-2">
    <mxGraphModel dx="1635" dy="902" grid="1" gridSize="10" guides="1" tooltips="1" connect="1" arrows="1" fold="1" page="1" pageScale="1" pageWidth="850" pageHeight="1100" math="0" shadow="0">
      <root>
        <mxCell id="c2-X8FKPH7nywRpDx2eG-0" />
        <mxCell id="c2-X8FKPH7nywRpDx2eG-1" parent="c2-X8FKPH7nywRpDx2eG-0" />
        <mxCell id="k7oxmP2yF-ALo5aPeGO5-3" value="diagrammes d’état – transition : Gestion de pompe&amp;nbsp;" style="text;html=1;align=center;verticalAlign=middle;resizable=0;points=[];autosize=1;" parent="c2-X8FKPH7nywRpDx2eG-1" vertex="1">
          <mxGeometry x="150" y="50" width="290" height="20" as="geometry" />
        </mxCell>
        <mxCell id="bFEJZy-cxepyUAXHgamj-4" value="Pistolet Accroche" style="html=1;align=center;verticalAlign=top;rounded=1;absoluteArcSize=1;arcSize=10;dashed=0;" parent="c2-X8FKPH7nywRpDx2eG-1" vertex="1">
          <mxGeometry x="205" y="780" width="140" height="40" as="geometry" />
        </mxCell>
        <mxCell id="bFEJZy-cxepyUAXHgamj-8" value="" style="edgeStyle=orthogonalEdgeStyle;rounded=0;orthogonalLoop=1;jettySize=auto;html=1;" parent="c2-X8FKPH7nywRpDx2eG-1" source="Ru7acteIukv2BR4gl1P4-0" target="bFEJZy-cxepyUAXHgamj-0" edge="1">
          <mxGeometry relative="1" as="geometry" />
        </mxCell>
        <mxCell id="Ru7acteIukv2BR4gl1P4-0" value="En attente" style="html=1;align=center;verticalAlign=top;rounded=1;absoluteArcSize=1;arcSize=10;dashed=0;" parent="c2-X8FKPH7nywRpDx2eG-1" vertex="1">
          <mxGeometry x="210" y="170" width="140" height="40" as="geometry" />
        </mxCell>
        <mxCell id="SdpkIlBm401cciRsRimq-29" value="" style="edgeStyle=orthogonalEdgeStyle;rounded=0;orthogonalLoop=1;jettySize=auto;html=1;" parent="c2-X8FKPH7nywRpDx2eG-1" source="Ru7acteIukv2BR4gl1P4-1" edge="1">
          <mxGeometry x="200" y="150" as="geometry">
            <mxPoint x="280" y="480" as="targetPoint" />
            <Array as="points">
              <mxPoint x="280" y="430" />
              <mxPoint x="280" y="430" />
            </Array>
          </mxGeometry>
        </mxCell>
        <mxCell id="bFEJZy-cxepyUAXHgamj-12" value="" style="edgeStyle=orthogonalEdgeStyle;rounded=0;orthogonalLoop=1;jettySize=auto;html=1;entryX=1;entryY=0.5;entryDx=0;entryDy=0;" parent="c2-X8FKPH7nywRpDx2eG-1" source="Ru7acteIukv2BR4gl1P4-1" target="bFEJZy-cxepyUAXHgamj-0" edge="1">
          <mxGeometry relative="1" as="geometry">
            <mxPoint x="460" y="280" as="targetPoint" />
            <Array as="points">
              <mxPoint x="510" y="380" />
              <mxPoint x="510" y="280" />
            </Array>
          </mxGeometry>
        </mxCell>
        <mxCell id="Ru7acteIukv2BR4gl1P4-1" value="Pompe activée" style="html=1;align=center;verticalAlign=top;rounded=1;absoluteArcSize=1;arcSize=10;dashed=0;" parent="c2-X8FKPH7nywRpDx2eG-1" vertex="1">
          <mxGeometry x="210" y="360" width="140" height="40" as="geometry" />
        </mxCell>
        <mxCell id="SdpkIlBm401cciRsRimq-1" value="Activer la pompe" style="text;html=1;strokeColor=none;fillColor=none;align=center;verticalAlign=middle;whiteSpace=wrap;rounded=0;" parent="c2-X8FKPH7nywRpDx2eG-1" vertex="1">
          <mxGeometry x="285" y="320" width="100" height="20" as="geometry" />
        </mxCell>
        <mxCell id="SdpkIlBm401cciRsRimq-3" value="[4% de petrole]" style="text;html=1;strokeColor=none;fillColor=none;align=center;verticalAlign=middle;whiteSpace=wrap;rounded=0;" parent="c2-X8FKPH7nywRpDx2eG-1" vertex="1">
          <mxGeometry x="245" y="220" width="170" height="20" as="geometry" />
        </mxCell>
        <mxCell id="bFEJZy-cxepyUAXHgamj-20" value="" style="edgeStyle=orthogonalEdgeStyle;rounded=0;orthogonalLoop=1;jettySize=auto;html=1;entryX=0.587;entryY=0.042;entryDx=0;entryDy=0;entryPerimeter=0;" parent="c2-X8FKPH7nywRpDx2eG-1" source="SdpkIlBm401cciRsRimq-19" target="TI1e5Ene7t4_LprJF3qE-0" edge="1">
          <mxGeometry relative="1" as="geometry">
            <mxPoint x="210" y="590" as="targetPoint" />
            <Array as="points">
              <mxPoint x="275" y="632" />
            </Array>
          </mxGeometry>
        </mxCell>
        <mxCell id="SdpkIlBm401cciRsRimq-19" value="En utilisation" style="swimlane;fontStyle=4;align=center;verticalAlign=top;childLayout=stackLayout;horizontal=1;startSize=30;resizeParent=1;resizeParentMax=0;resizeLast=0;collapsible=0;marginBottom=0;html=1;rounded=1;absoluteArcSize=1;arcSize=50;" parent="c2-X8FKPH7nywRpDx2eG-1" vertex="1">
          <mxGeometry x="200" y="480" width="150" height="70" as="geometry" />
        </mxCell>
        <mxCell id="SdpkIlBm401cciRsRimq-30" value="Do : afficher quantite" style="text;html=1;align=center;verticalAlign=middle;resizable=0;points=[];autosize=1;" parent="c2-X8FKPH7nywRpDx2eG-1" vertex="1">
          <mxGeometry x="215" y="510" width="130" height="20" as="geometry" />
        </mxCell>
        <mxCell id="SdpkIlBm401cciRsRimq-31" value="Arrêter distribution" style="swimlane;fontStyle=4;align=center;verticalAlign=top;childLayout=stackLayout;horizontal=1;startSize=30;resizeParent=1;resizeParentMax=0;resizeLast=0;collapsible=0;marginBottom=0;html=1;rounded=1;absoluteArcSize=1;arcSize=50;" parent="c2-X8FKPH7nywRpDx2eG-1" vertex="1">
          <mxGeometry x="210" y="860" width="150" height="70" as="geometry" />
        </mxCell>
        <mxCell id="SdpkIlBm401cciRsRimq-34" value="Do :Afficher montant total" style="text;html=1;align=center;verticalAlign=middle;resizable=0;points=[];autosize=1;" parent="SdpkIlBm401cciRsRimq-31" vertex="1">
          <mxGeometry y="30" width="150" height="40" as="geometry" />
        </mxCell>
        <mxCell id="bFEJZy-cxepyUAXHgamj-16" value="" style="edgeStyle=orthogonalEdgeStyle;rounded=0;orthogonalLoop=1;jettySize=auto;html=1;exitX=1.044;exitY=0.225;exitDx=0;exitDy=0;exitPerimeter=0;" parent="c2-X8FKPH7nywRpDx2eG-1" source="SdpkIlBm401cciRsRimq-34" edge="1">
          <mxGeometry relative="1" as="geometry">
            <mxPoint x="380" y="865" as="sourcePoint" />
            <mxPoint x="350" y="190" as="targetPoint" />
            <Array as="points">
              <mxPoint x="605" y="889" />
              <mxPoint x="605" y="190" />
            </Array>
          </mxGeometry>
        </mxCell>
        <mxCell id="SdpkIlBm401cciRsRimq-43" value="Decrocher Pistolet [Gachette préssée]" style="text;html=1;strokeColor=none;fillColor=none;align=center;verticalAlign=middle;whiteSpace=wrap;rounded=0;" parent="c2-X8FKPH7nywRpDx2eG-1" vertex="1">
          <mxGeometry x="300" y="430" width="225" height="20" as="geometry" />
        </mxCell>
        <mxCell id="k7oxmP2yF-ALo5aPeGO5-0" value="Racrocher Pistolet&amp;nbsp;" style="text;html=1;align=center;verticalAlign=middle;resizable=0;points=[];autosize=1;" parent="c2-X8FKPH7nywRpDx2eG-1" vertex="1">
          <mxGeometry x="340" y="580" width="120" height="20" as="geometry" />
        </mxCell>
        <mxCell id="k7oxmP2yF-ALo5aPeGO5-1" value="Desactiver pompe" style="text;html=1;align=center;verticalAlign=middle;resizable=0;points=[];autosize=1;" parent="c2-X8FKPH7nywRpDx2eG-1" vertex="1">
          <mxGeometry x="380" y="730" width="110" height="20" as="geometry" />
        </mxCell>
        <mxCell id="bFEJZy-cxepyUAXHgamj-9" value="" style="edgeStyle=orthogonalEdgeStyle;rounded=0;orthogonalLoop=1;jettySize=auto;html=1;" parent="c2-X8FKPH7nywRpDx2eG-1" source="bFEJZy-cxepyUAXHgamj-0" target="Ru7acteIukv2BR4gl1P4-1" edge="1">
          <mxGeometry relative="1" as="geometry" />
        </mxCell>
        <mxCell id="bFEJZy-cxepyUAXHgamj-0" value="pompe activabe" style="html=1;align=center;verticalAlign=top;rounded=1;absoluteArcSize=1;arcSize=10;dashed=0;" parent="c2-X8FKPH7nywRpDx2eG-1" vertex="1">
          <mxGeometry x="210" y="260" width="140" height="40" as="geometry" />
        </mxCell>
        <mxCell id="bFEJZy-cxepyUAXHgamj-6" value="" style="ellipse;html=1;shape=startState;fillColor=#000000;strokeColor=#ff0000;" parent="c2-X8FKPH7nywRpDx2eG-1" vertex="1">
          <mxGeometry x="265" y="80" width="30" height="30" as="geometry" />
        </mxCell>
        <mxCell id="bFEJZy-cxepyUAXHgamj-7" value="" style="edgeStyle=orthogonalEdgeStyle;html=1;verticalAlign=bottom;endArrow=open;endSize=8;strokeColor=#ff0000;" parent="c2-X8FKPH7nywRpDx2eG-1" source="bFEJZy-cxepyUAXHgamj-6" edge="1">
          <mxGeometry relative="1" as="geometry">
            <mxPoint x="280" y="170" as="targetPoint" />
          </mxGeometry>
        </mxCell>
        <mxCell id="TI1e5Ene7t4_LprJF3qE-6" value="" style="edgeStyle=orthogonalEdgeStyle;rounded=0;orthogonalLoop=1;jettySize=auto;html=1;entryX=0.5;entryY=0;entryDx=0;entryDy=0;" edge="1" parent="c2-X8FKPH7nywRpDx2eG-1" source="TI1e5Ene7t4_LprJF3qE-0" target="bFEJZy-cxepyUAXHgamj-4">
          <mxGeometry relative="1" as="geometry">
            <mxPoint x="270" y="750" as="targetPoint" />
            <Array as="points">
              <mxPoint x="275" y="730" />
              <mxPoint x="275" y="730" />
            </Array>
          </mxGeometry>
        </mxCell>
        <mxCell id="TI1e5Ene7t4_LprJF3qE-0" value="Gachette rélachée" style="html=1;align=center;verticalAlign=top;rounded=1;absoluteArcSize=1;arcSize=10;dashed=0;" vertex="1" parent="c2-X8FKPH7nywRpDx2eG-1">
          <mxGeometry x="190" y="680" width="140" height="40" as="geometry" />
        </mxCell>
        <mxCell id="TI1e5Ene7t4_LprJF3qE-8" value="Relacher Gachette" style="text;html=1;align=center;verticalAlign=middle;resizable=0;points=[];autosize=1;" vertex="1" parent="c2-X8FKPH7nywRpDx2eG-1">
          <mxGeometry x="375" y="680" width="120" height="20" as="geometry" />
        </mxCell>
      </root>
    </mxGraphModel>
  </diagram>
</mxfile>
